<?xml version="1.0" encoding="UTF-8"?>
<svg xmlns="http://www.w3.org/2000/svg" xmlns:xlink="http://www.w3.org/1999/xlink" width="450px" height="115px" viewBox="0 0 450 115" version="1.1">
<g id="surface1">
<path style=" stroke:none;fill-rule:nonzero;fill:rgb(0%,0%,0%);fill-opacity:1;" d="M 25.699219 52.03125 L 25.699219 76.351562 C 25.699219 76.632812 26.035156 76.769531 26.238281 76.574219 L 38.402344 64.460938 C 38.582031 64.28125 38.683594 64.042969 38.683594 63.792969 L 38.683594 39.273438 C 38.683594 38.753906 38.253906 38.328125 37.730469 38.328125 L 13.109375 38.328125 C 12.859375 38.328125 12.617188 38.429688 12.4375 38.605469 L 0.277344 50.726562 C 0.078125 50.921875 0.21875 51.261719 0.5 51.261719 L 24.921875 51.261719 C 25.351562 51.261719 25.699219 51.609375 25.699219 52.035156 Z M 25.699219 52.03125 "/>
<path style=" stroke:none;fill-rule:nonzero;fill:rgb(0%,0%,0%);fill-opacity:1;" d="M 0.5 12.925781 L 24.921875 12.925781 C 25.351562 12.925781 25.699219 13.273438 25.699219 13.699219 L 25.699219 38.019531 C 25.699219 38.300781 26.035156 38.4375 26.238281 38.242188 L 38.402344 26.128906 C 38.582031 25.949219 38.683594 25.707031 38.683594 25.460938 L 38.683594 0.945312 C 38.683594 0.425781 38.253906 0 37.730469 0 L 13.109375 0 C 12.859375 0 12.617188 0.101562 12.4375 0.277344 L 0.277344 12.390625 C 0.078125 12.585938 0.21875 12.925781 0.5 12.925781 Z M 0.5 12.925781 "/>
<path style=" stroke:none;fill-rule:nonzero;fill:rgb(0%,0%,0%);fill-opacity:1;" d="M 64.191406 52.03125 L 64.191406 76.351562 C 64.191406 76.632812 64.53125 76.769531 64.730469 76.574219 L 76.894531 64.460938 C 77.074219 64.28125 77.175781 64.042969 77.175781 63.792969 L 77.175781 39.273438 C 77.175781 38.753906 76.75 38.328125 76.222656 38.328125 L 51.605469 38.328125 C 51.355469 38.328125 51.113281 38.429688 50.933594 38.605469 L 38.769531 50.722656 C 38.570312 50.917969 38.714844 51.257812 38.992188 51.257812 L 63.414062 51.257812 C 63.84375 51.257812 64.191406 51.605469 64.191406 52.03125 Z M 64.191406 52.03125 "/>
<path style=" stroke:none;fill-rule:nonzero;fill:rgb(0%,0%,0%);fill-opacity:1;" d="M 25.699219 90.363281 L 25.699219 114.683594 C 25.699219 114.964844 26.035156 115.101562 26.238281 114.90625 L 38.402344 102.792969 C 38.582031 102.613281 38.683594 102.375 38.683594 102.125 L 38.683594 77.609375 C 38.683594 77.085938 38.253906 76.660156 37.730469 76.660156 L 13.109375 76.660156 C 12.859375 76.660156 12.617188 76.761719 12.4375 76.9375 L 0.277344 89.058594 C 0.078125 89.253906 0.21875 89.59375 0.5 89.59375 L 24.921875 89.59375 C 25.351562 89.59375 25.699219 89.941406 25.699219 90.367188 Z M 25.699219 90.363281 "/>
<path style=" stroke:none;fill-rule:nonzero;fill:rgb(0%,0%,0%);fill-opacity:1;" d="M 64.191406 13.699219 L 64.191406 38.019531 C 64.191406 38.300781 64.53125 38.4375 64.730469 38.242188 L 76.894531 26.128906 C 77.074219 25.949219 77.175781 25.707031 77.175781 25.460938 L 77.175781 0.945312 C 77.175781 0.425781 76.75 0 76.222656 0 L 51.605469 0 C 51.355469 0 51.113281 0.101562 50.933594 0.277344 L 38.769531 12.390625 C 38.570312 12.589844 38.714844 12.929688 38.992188 12.929688 L 63.414062 12.929688 C 63.84375 12.929688 64.191406 13.277344 64.191406 13.703125 Z M 64.191406 13.699219 "/>
<path style=" stroke:none;fill-rule:nonzero;fill:rgb(0%,0%,0%);fill-opacity:1;" d="M 147.96875 29.539062 C 153.699219 29.539062 158.25 30.835938 161.613281 33.425781 C 164.976562 36.019531 166.660156 40.089844 166.660156 45.640625 C 166.660156 56.902344 160.269531 62.527344 147.496094 62.527344 L 132.273438 62.527344 L 132.273438 85.460938 L 124.855469 85.460938 L 124.855469 29.539062 Z M 132.273438 56.324219 L 146.546875 56.324219 C 150.542969 56.324219 153.660156 55.578125 155.894531 54.085938 C 158.128906 52.589844 159.246094 49.933594 159.246094 46.113281 C 159.246094 43.964844 158.890625 42.183594 158.179688 40.769531 C 157.472656 39.355469 156.429688 38.308594 155.0625 37.628906 C 153.695312 36.949219 152.277344 36.488281 150.804688 36.257812 C 149.335938 36.023438 147.574219 35.902344 145.523438 35.902344 L 132.273438 35.902344 Z M 132.273438 56.324219 "/>
<path style=" stroke:none;fill-rule:nonzero;fill:rgb(0%,0%,0%);fill-opacity:1;" d="M 205.878906 85.304688 C 204.511719 85.828125 202.988281 86.089844 201.304688 86.089844 C 197.46875 86.089844 195.496094 84.101562 195.390625 80.121094 C 191.550781 84.414062 186.636719 86.5625 180.640625 86.5625 C 176.644531 86.5625 173.476562 85.542969 171.136719 83.5 C 168.800781 81.457031 167.628906 78.65625 167.628906 75.09375 C 167.628906 67.867188 172.4375 63.652344 182.0625 62.449219 C 182.691406 62.34375 183.613281 62.238281 184.820312 62.132812 C 189.394531 61.609375 192.207031 61.007812 193.261719 60.324219 C 194.472656 59.488281 195.078125 58.046875 195.078125 56.003906 C 195.078125 51.554688 192 49.328125 185.847656 49.328125 C 182.695312 49.328125 180.300781 49.96875 178.671875 51.253906 C 177.042969 52.535156 176.070312 54.644531 175.753906 57.574219 L 169.207031 57.574219 C 169.3125 53.230469 170.863281 49.851562 173.859375 47.441406 C 176.855469 45.035156 180.984375 43.832031 186.242188 43.832031 C 191.972656 43.832031 196.230469 45.140625 199.015625 47.757812 C 199.910156 48.59375 200.570312 49.699219 200.988281 51.058594 C 201.410156 52.421875 201.648438 53.53125 201.699219 54.394531 C 201.75 55.261719 201.777344 56.558594 201.777344 58.285156 C 201.777344 60.273438 201.722656 63.285156 201.621094 67.316406 C 201.511719 71.347656 201.464844 74.359375 201.464844 76.347656 C 201.464844 77.816406 201.660156 78.851562 202.054688 79.453125 C 202.449219 80.054688 203.171875 80.355469 204.226562 80.355469 C 204.644531 80.355469 205.195312 80.277344 205.878906 80.121094 Z M 193.578125 65.355469 C 193.050781 65.617188 192.378906 65.828125 191.566406 65.984375 C 190.753906 66.140625 190.199219 66.257812 189.914062 66.335938 C 189.625 66.414062 188.929688 66.519531 187.820312 66.652344 C 186.71875 66.78125 186.136719 66.847656 186.085938 66.847656 C 184.457031 67.058594 183.394531 67.199219 182.890625 67.277344 C 182.394531 67.355469 181.445312 67.578125 180.050781 67.945312 C 178.660156 68.3125 177.671875 68.734375 177.09375 69.203125 C 176.519531 69.671875 175.949219 70.367188 175.398438 71.285156 C 174.847656 72.203125 174.570312 73.285156 174.570312 74.542969 C 174.570312 76.640625 175.296875 78.289062 176.742188 79.492188 C 178.1875 80.699219 180.171875 81.300781 182.695312 81.300781 C 185.902344 81.300781 188.769531 80.359375 191.292969 78.472656 C 193.816406 76.585938 195.078125 74.363281 195.078125 71.796875 L 195.078125 64.414062 C 194.601562 64.777344 194.105469 65.09375 193.578125 65.355469 Z M 193.578125 65.355469 "/>
<path style=" stroke:none;fill-rule:nonzero;fill:rgb(0%,0%,0%);fill-opacity:1;" d="M 234.066406 50.902344 C 233.59375 50.847656 233.015625 50.824219 232.332031 50.824219 C 230.175781 50.824219 228.3125 51.152344 226.734375 51.804688 C 225.15625 52.460938 223.910156 53.308594 222.988281 54.359375 C 222.066406 55.40625 221.320312 56.714844 220.738281 58.285156 C 220.160156 59.855469 219.78125 61.429688 219.59375 63 C 219.410156 64.570312 219.320312 66.347656 219.320312 68.339844 L 219.320312 85.464844 L 212.617188 85.464844 L 212.617188 44.9375 L 219.003906 44.9375 L 219.003906 53.652344 C 221.6875 47.210938 226.707031 43.992188 234.070312 43.992188 L 234.070312 50.90625 Z M 234.066406 50.902344 "/>
<path style=" stroke:none;fill-rule:nonzero;fill:rgb(0%,0%,0%);fill-opacity:1;" d="M 254.070312 86.796875 C 248.078125 86.796875 243.382812 84.9375 239.992188 81.21875 C 236.605469 77.5 234.90625 72.34375 234.90625 65.746094 C 234.90625 59.148438 236.652344 53.898438 240.148438 49.839844 C 243.644531 45.78125 248.207031 43.753906 253.832031 43.753906 C 260.089844 43.753906 264.730469 45.859375 267.753906 50.074219 C 270.777344 54.289062 272.289062 59.617188 272.289062 66.058594 L 272.289062 67 L 241.6875 67 L 241.609375 67.472656 C 241.609375 71.765625 242.738281 75.144531 245 77.605469 C 247.261719 80.066406 250.363281 81.296875 254.304688 81.296875 C 257.25 81.296875 259.578125 80.613281 261.285156 79.253906 C 262.996094 77.890625 264.320312 75.695312 265.265625 72.65625 L 271.8125 72.65625 C 269.761719 82.082031 263.847656 86.792969 254.066406 86.792969 Z M 261.800781 52.515625 C 259.75 50.339844 257.039062 49.253906 253.675781 49.253906 C 250.3125 49.253906 247.710938 50.351562 245.550781 52.554688 C 243.394531 54.753906 242.109375 57.765625 241.6875 61.585938 L 265.347656 61.585938 C 265.03125 57.710938 263.851562 54.691406 261.800781 52.515625 Z M 261.800781 52.515625 "/>
<path style=" stroke:none;fill-rule:nonzero;fill:rgb(0%,0%,0%);fill-opacity:1;" d="M 296.152344 50.429688 L 288.03125 50.429688 L 288.03125 74.074219 C 288.03125 75.382812 288.042969 76.246094 288.070312 76.664062 C 288.097656 77.082031 288.242188 77.644531 288.503906 78.355469 C 288.761719 79.0625 289.210938 79.519531 289.84375 79.726562 C 290.480469 79.9375 291.367188 80.042969 292.527344 80.042969 C 293.527344 80.042969 294.734375 79.964844 296.152344 79.808594 L 296.152344 85.542969 C 294.261719 85.75 292.550781 85.855469 291.027344 85.855469 C 289.132812 85.855469 287.554688 85.648438 286.296875 85.230469 C 285.035156 84.8125 284.074219 84.339844 283.417969 83.816406 C 282.757812 83.289062 282.273438 82.363281 281.960938 81.027344 C 281.644531 79.691406 281.460938 78.566406 281.40625 77.648438 C 281.355469 76.730469 281.328125 75.199219 281.328125 73.050781 L 281.328125 50.429688 L 274.464844 50.429688 L 274.464844 44.933594 L 281.328125 44.933594 L 281.328125 32.914062 L 288.03125 32.914062 L 288.03125 44.933594 L 296.15625 44.933594 L 296.15625 50.429688 Z M 296.152344 50.429688 "/>
<path style=" stroke:none;fill-rule:nonzero;fill:rgb(0%,0%,0%);fill-opacity:1;" d="M 348.289062 36.175781 C 353.019531 41.488281 355.386719 48.4375 355.386719 57.027344 C 355.386719 65.617188 353.046875 72.789062 348.367188 78.390625 C 343.683594 83.992188 337.058594 86.796875 328.492188 86.796875 C 324.128906 86.796875 320.210938 86.007812 316.742188 84.4375 C 313.269531 82.867188 310.445312 80.695312 308.261719 77.917969 C 306.082031 75.144531 304.425781 71.976562 303.292969 68.414062 C 302.160156 64.855469 301.597656 61.007812 301.597656 56.871094 C 301.597656 48.125 304.03125 41.160156 308.890625 35.976562 C 313.753906 30.796875 320.265625 28.203125 328.414062 28.203125 C 336.5625 28.203125 343.558594 30.859375 348.289062 36.175781 Z M 314.019531 41.203125 C 310.679688 45.574219 309.011719 50.980469 309.011719 57.421875 C 309.011719 64.4375 310.785156 70.027344 314.335938 74.191406 C 317.882812 78.355469 322.632812 80.4375 328.574219 80.4375 C 334.515625 80.4375 339.167969 78.339844 342.691406 74.152344 C 346.214844 69.964844 347.976562 64.386719 347.976562 57.425781 C 347.976562 50.460938 346.199219 44.988281 342.652344 40.851562 C 339.101562 36.714844 334.355469 34.648438 328.414062 34.648438 C 322.15625 34.648438 317.359375 36.832031 314.019531 41.203125 Z M 314.019531 41.203125 "/>
<path style=" stroke:none;fill-rule:nonzero;fill:rgb(0%,0%,0%);fill-opacity:1;" d="M 383.484375 29.539062 C 389.21875 29.539062 393.765625 30.835938 397.128906 33.425781 C 400.496094 36.019531 402.179688 40.089844 402.179688 45.640625 C 402.179688 56.902344 395.789062 62.527344 383.011719 62.527344 L 367.789062 62.527344 L 367.789062 85.460938 L 360.375 85.460938 L 360.375 29.539062 Z M 367.789062 56.324219 L 382.066406 56.324219 C 386.0625 56.324219 389.175781 55.578125 391.410156 54.085938 C 393.648438 52.589844 394.761719 49.933594 394.761719 46.113281 C 394.761719 43.964844 394.410156 42.183594 393.699219 40.769531 C 392.988281 39.355469 391.949219 38.308594 390.582031 37.628906 C 389.214844 36.949219 387.792969 36.488281 386.324219 36.257812 C 384.851562 36.023438 383.089844 35.902344 381.039062 35.902344 L 367.789062 35.902344 Z M 367.789062 56.324219 "/>
<path style=" stroke:none;fill-rule:nonzero;fill:rgb(0%,0%,0%);fill-opacity:1;" d="M 440.433594 45.953125 C 439.644531 38.359375 434.988281 34.5625 426.472656 34.5625 C 422.421875 34.5625 419.292969 35.375 417.085938 37 C 414.878906 38.621094 413.773438 40.898438 413.773438 43.832031 C 413.773438 44.878906 413.929688 45.796875 414.246094 46.582031 C 414.5625 47.363281 415.097656 48.0625 415.863281 48.664062 C 416.625 49.265625 417.351562 49.777344 418.035156 50.195312 C 418.71875 50.617188 419.796875 51.035156 421.265625 51.453125 C 422.738281 51.871094 423.921875 52.171875 424.816406 52.355469 C 425.710938 52.539062 427.105469 52.839844 428.996094 53.257812 C 431.308594 53.726562 433.226562 54.160156 434.75 54.550781 C 436.277344 54.945312 438.089844 55.585938 440.195312 56.476562 C 442.296875 57.367188 443.964844 58.347656 445.203125 59.421875 C 446.4375 60.496094 447.515625 61.921875 448.433594 63.699219 C 449.351562 65.480469 449.8125 67.496094 449.8125 69.75 C 449.8125 73.675781 448.710938 76.960938 446.5 79.605469 C 444.292969 82.25 441.609375 84.09375 438.453125 85.140625 C 435.300781 86.1875 431.800781 86.710938 427.964844 86.710938 C 420.917969 86.710938 415.277344 85.050781 411.046875 81.726562 C 406.8125 78.402344 404.695312 73.492188 404.695312 66.996094 L 411.875 66.996094 C 412.03125 71.761719 413.636719 75.230469 416.683594 77.40625 C 419.734375 79.578125 423.703125 80.664062 428.589844 80.664062 C 432.429688 80.664062 435.714844 79.863281 438.449219 78.269531 C 441.183594 76.675781 442.550781 74.066406 442.550781 70.453125 C 442.550781 68.777344 442.183594 67.351562 441.445312 66.171875 C 440.707031 64.996094 439.550781 64.027344 437.976562 63.265625 C 436.398438 62.507812 434.820312 61.894531 433.242188 61.421875 C 431.667969 60.949219 429.585938 60.425781 427.011719 59.851562 C 426.648438 59.796875 426.382812 59.746094 426.222656 59.695312 C 420.4375 58.386719 416.65625 57.335938 414.867188 56.554688 C 409.398438 54.195312 406.664062 50.140625 406.664062 44.378906 C 406.664062 39.039062 408.648438 35.046875 412.621094 32.402344 C 416.589844 29.757812 421.386719 28.4375 427.011719 28.4375 C 433.164062 28.4375 438.082031 29.90625 441.761719 32.835938 C 445.441406 35.769531 447.386719 40.140625 447.601562 45.953125 L 440.421875 45.953125 Z M 440.433594 45.953125 "/>
</g>
</svg>
